<?xml version="1.0" encoding="iso-8859-1"?>
<!-- Generator: Adobe Illustrator 19.0.0, SVG Export Plug-In . SVG Version: 6.00 Build 0)  -->
<svg version="1.1" id="Capa_1" xmlns="http://www.w3.org/2000/svg" xmlns:xlink="http://www.w3.org/1999/xlink" x="0px" y="0px"
	 viewBox="0 0 512 512" style="enable-background:new 0 0 512 512;" xml:space="preserve">
<path style="fill:#B78046;" d="M422.437,395.624c3.436,0,6.721,0.623,9.765,1.747v-55.158h-26.413v58.847
	C410.455,397.643,416.207,395.624,422.437,395.624z"/>
<path style="fill:#99CC56;" d="M489.571,425.749c-1.544-0.019-3.033,0.198-4.437,0.612c-1.843,0.544-3.84-0.397-4.575-2.173
	c-3.337-8.056-11.132-13.884-20.211-14.324c-2.867-0.139-5.624,0.249-8.186,1.072c-2.169,0.697-4.472-0.301-5.59-2.286
	c-4.884-8.677-14.161-14.545-24.827-14.545c-13.193,0-24.247,8.977-27.495,21.146l24.73,40.797c32.134,0,61.546,0,70.407,0
	c8.574,0,15.484-7.122,15.138-15.773C504.205,432.324,497.527,425.846,489.571,425.749z"/>
<path style="fill:#8DBC42;" d="M473.597,455.215c-0.444-14.958-13.11-26.669-28.075-26.669H434.5c-5.021,0-9.678-2.622-12.28-6.916
	l-14.453-23.842c-6.575,3.725-11.525,9.986-13.52,17.463l24.73,40.797c21.044,0,40.919,0,54.621,0
	C473.6,455.77,473.605,455.494,473.597,455.215z"/>
<path style="fill:#56BB98;" d="M493.959,338.193c-4.831-17.236-12.652-36.852-22.965-53.621c-1.625-2.643,0.278-6.038,3.38-6.038
	h14.733c2.906,0,4.831-3.012,3.601-5.645c-5.174-11.072-17.412-36.274-30.424-56.023c-1.742-2.644,0.143-6.158,3.309-6.158h12.936
	c3.021,0,4.936-3.234,3.481-5.882c-7.702-14.019-29.21-50.664-60.15-83.288c-1.552-1.636-4.177-1.636-5.728,0
	c-12.591,13.275-24.618,27.216-33.79,40.028c11.47,16.791,19.501,30.872,23.381,38.002c1.233,2.267-0.41,5.022-2.99,5.022H386.53
	c-2.724,0-4.331,3.035-2.819,5.301c14.333,21.482,27.908,49.683,33.087,60.828c1.048,2.254-0.6,4.83-3.086,4.83h-17.944
	c-2.668,0-4.3,2.932-2.885,5.193c11.33,18.096,19.853,39.535,24.99,58.182c0.595,2.16-1.044,4.289-3.284,4.289h3.407h72.134
	C492.749,343.212,494.666,340.715,493.959,338.193z"/>
<path style="fill:#57AA8F;" d="M414.587,343.212h3.407h20.73c0.469-3.177,0.297-6.452-0.57-9.6
	c-3.765-13.671-8.75-27.232-14.573-39.795c4.401-1.796,8.206-4.925,10.859-9.083c4.32-6.77,4.878-15.161,1.494-22.445
	c-3.664-7.885-11.404-24.045-20.751-40.709c3.528-1.981,6.547-4.866,8.669-8.436c4.195-7.057,4.364-15.923,0.438-23.14
	c-4.885-8.977-14.657-25.975-28.541-45.662c-4.884,5.855-9.418,11.646-13.409,17.221c11.47,16.791,19.501,30.872,23.381,38.002
	c1.233,2.267-0.41,5.022-2.99,5.022h-16.203c-2.724,0-4.331,3.035-2.82,5.301c14.334,21.482,27.908,49.683,33.087,60.828
	c1.047,2.254-0.601,4.83-3.086,4.83h-17.943c-2.668,0-4.3,2.932-2.885,5.193c11.33,18.096,19.853,39.535,24.99,58.182
	C418.466,341.081,416.827,343.212,414.587,343.212z"/>
<path style="fill:#54CCA1;" d="M276.626,204.588h16.203c2.724,0,4.331,3.035,2.819,5.301c-4.344,6.51-9.617,13.639-13.608,20.722
	l68.256,112.601h65.291c2.241,0,3.879-2.129,3.284-4.289c-5.135-18.646-13.66-40.084-24.99-58.182
	c-1.416-2.261,0.217-5.193,2.884-5.193h17.944c2.485,0,4.133-2.577,3.085-4.83c-5.179-11.146-18.753-39.345-33.086-60.829
	c-1.512-2.265,0.095-5.301,2.819-5.301h16.203c2.58,0,4.223-2.756,2.989-5.022c-7.513-13.806-30.556-53.647-64.09-88.837
	c-1.332-1.398-3.574-1.398-4.906,0c-33.534,35.189-56.575,75.031-64.09,88.837C272.402,201.832,274.045,204.588,276.626,204.588z"/>
<g>
	<path style="fill:#56BB98;" d="M276.626,204.588h14.029L280.4,187.671c-2.908,4.922-5.184,8.991-6.764,11.894
		C272.402,201.832,274.045,204.588,276.626,204.588z"/>
	<path style="fill:#56BB98;" d="M350.296,343.212h24.389l-79.975-131.934c-4.15,6.13-8.959,12.748-12.67,19.333L350.296,343.212z"/>
</g>
<path style="fill:#FCB75B;" d="M419.695,456.048H33.949L214.04,158.955c2.709-4.469,7.555-7.198,12.782-7.198
	c5.226,0,10.073,2.729,12.782,7.198L419.695,456.048z"/>
<path style="fill:#FED159;" d="M419.695,456.048H33.949L214.04,158.955c2.709-4.469,7.555-7.198,12.782-7.198
	c5.226,0,10.073,2.729,12.782,7.198L419.695,456.048z"/>
<g>
	<path style="fill:#FCB75B;" d="M236.828,155.61c-2.709-2.443-6.257-3.853-10.007-3.853c-5.226,0-10.073,2.729-12.782,7.198
		L33.949,456.047h20.012l180.091-297.093C234.819,157.691,235.76,156.572,236.828,155.61z"/>
	<path style="fill:#FCB75B;" d="M226.822,151.756c-4.936,0-9.873,2.399-12.782,7.198L33.949,456.048h192.873L226.822,151.756
		L226.822,151.756z"/>
</g>
<path style="fill:#ED9A37;" d="M226.822,151.756c-4.936,0-9.873,2.399-12.782,7.198L33.949,456.047h20.334l172.538-284.632V151.756z
	"/>
<g>
	<path style="fill:#FED159;" d="M156.286,393.754v62.295l70.535-70.535h-62.295C159.976,385.512,156.286,389.202,156.286,393.754z"
		/>
	<circle style="fill:#FED159;" cx="107.487" cy="123.727" r="34.898"/>
</g>
<path style="fill:#FCB75B;" d="M92.588,123.73c0-15.797,10.499-29.136,24.897-33.436c-3.169-0.947-6.524-1.462-10.001-1.462
	c-19.273,0-34.898,15.624-34.898,34.898s15.625,34.898,34.898,34.898c3.476,0,6.831-0.515,10.001-1.462
	C103.086,152.866,92.588,139.527,92.588,123.73z"/>
<polygon style="fill:#616584;" points="226.822,385.512 156.286,456.047 226.822,456.047 "/>
<polygon style="fill:#4D5370;" points="226.822,385.512 156.286,456.047 177.288,456.047 226.822,406.513 "/>
<path d="M511.981,440.173c-0.515-12.833-12.358-23.295-25.69-21.378c-6.487-11.967-20.268-18.426-33.826-15.17
	c-3.25-5.053-7.678-9.133-12.801-11.966V350.78h50.428c7.593,0,13.1-7.232,11.054-14.541c0-0.001-0.001-0.002-0.001-0.003
	c-4.973-17.741-12.212-35.307-20.616-50.135h8.541c8.39,0,13.953-8.717,10.397-16.321c-4.405-9.429-15.351-32.101-27.454-51.507
	h6.479c8.734,0,14.253-9.354,10.055-16.994c-7.939-14.453-29.806-51.649-61.281-84.838c-4.5-4.743-12.108-4.753-16.612,0
	c-9.231,9.733-18.342,20.581-27.181,32.313c-9.898-13.813-21.802-28.815-35.445-43.131c-4.279-4.493-11.485-4.497-15.767-0.001
	c-31.584,33.142-53.86,69.966-63.453,87.168l-22.826-37.655c-4.103-6.768-11.279-10.811-19.194-10.811h-0.002l0,0l0,0
	c-7.708,0-14.989,3.874-19.194,10.812L29.688,448.615H7.5c-4.143,0-7.5,3.358-7.5,7.5s3.357,7.5,7.5,7.5
	c14.374,0,391.075,0,412.158,0h19.028c4.143,0,7.5-3.358,7.5-7.5s-3.357-7.5-7.5-7.5h-14.804
	c-12.072-19.915-8.431-13.908-20.521-33.854c3.26-7.6,10.765-12.57,19.038-12.57c7.331,0,14.345,3.961,18.083,10.602
	c2.857,5.078,8.9,7.484,14.373,5.729c7.782-2.499,15.912,1.565,18.938,8.87c2.206,5.33,8.047,8.112,13.592,6.478
	c4.728-1.395,9.419,2.206,9.607,6.904c0.173,4.313-3.256,7.84-7.516,7.84h-15.787c-4.143,0-7.5,3.358-7.5,7.5s3.357,7.5,7.5,7.5
	h15.787C502.259,463.616,512.496,453.016,511.981,440.173z M219.284,448.615h-44.927l44.927-44.927V448.615z M163.75,438.007V393.82
	c0-0.408,0.332-0.74,0.74-0.74h44.188L163.75,438.007z M219.284,378.08H164.49c-8.68,0-15.741,7.061-15.741,15.741v54.794H47.23
	l172.055-283.834V378.08H219.284z M406.341,448.615H234.285V164.779C240.731,175.41,399.297,436.995,406.341,448.615z
	 M280.546,212.156h4.716c-0.784,1.252-1.578,2.543-2.376,3.859L280.546,212.156z M364.577,350.779h33.674v45.844
	c-1.281,1.176-2.477,2.447-3.579,3.803L364.577,350.779z M355.484,335.778c-1.71-2.821-62.071-102.397-63.78-105.216
	c3.526-6.105,6.93-11.624,10.147-16.443c4.836-7.245-0.361-16.964-9.059-16.964h-9.228c9.672-16.996,29.369-48.707,56.576-78.02
	c21.474,23.134,41.135,50.945,56.573,78.019h-9.224c-8.712,0-13.886,9.729-9.06,16.965c11.982,17.958,23.488,40.849,29.774,53.995
	h-11.478c-8.56,0-13.769,9.446-9.243,16.673c9.619,15.359,17.404,33.705,22.608,50.991
	C399.111,335.778,366.845,335.778,355.484,335.778z M424.664,387.261c-3.737-0.234-7.735,0.136-11.412,1.107v-37.589h2.298h9.114
	V387.261z M425.727,335.778c-5.415-19.255-13.226-37.714-21.766-52.663h10.713c7.961,0,13.242-8.273,9.889-15.492
	c-4.751-10.226-16.503-34.668-29.54-55.467h8.674c8.272,0,13.531-8.843,9.578-16.108c-5.579-10.25-12.753-22.206-20.805-34.279
	c8.605-11.713,17.489-22.53,26.49-32.253c25.692,27.75,44.437,57.896,53.506,73.756h-6.908c-4.225,0-8.094,2.309-10.097,6.027
	c-2.005,3.721-1.804,8.228,0.523,11.759c11.109,16.86,21.766,38.063,27.51,50.042h-9.156c-4.149,0-7.984,2.249-10.01,5.87
	c-2.024,3.619-1.933,8.063,0.24,11.598c8.317,13.523,15.632,30.135,20.817,47.21C478.211,335.778,432.499,335.778,425.727,335.778z"
	/>
<path d="M107.164,76.706c4.143,0,7.5-3.358,7.5-7.5V55.884c0-4.142-3.357-7.5-7.5-7.5c-4.143,0-7.5,3.358-7.5,7.5v13.322
	C99.664,73.348,103.021,76.706,107.164,76.706z"/>
<path d="M99.664,178.389v13.323c0,4.142,3.357,7.5,7.5,7.5c4.143,0,7.5-3.358,7.5-7.5V178.39c0-4.142-3.357-7.5-7.5-7.5
	C103.021,170.889,99.664,174.246,99.664,178.389z"/>
<path d="M63.259,90.499c2.93,2.929,7.678,2.929,10.608,0c2.929-2.929,2.929-7.678,0-10.607l-9.421-9.421
	c-2.93-2.929-7.678-2.929-10.608,0c-2.929,2.929-2.929,7.678,0,10.607L63.259,90.499z"/>
<path d="M151.07,157.096c-2.929-2.929-7.678-2.929-10.607,0c-2.93,2.929-2.93,7.677-0.001,10.607l9.42,9.42
	c2.929,2.929,7.678,2.929,10.607,0c2.93-2.929,2.93-7.677,0.001-10.607L151.07,157.096z"/>
<path d="M39.25,131.299h13.322c4.143,0,7.5-3.358,7.5-7.5c0-4.142-3.357-7.5-7.5-7.5H39.25c-4.143,0-7.5,3.358-7.5,7.5
	C31.75,127.941,35.107,131.299,39.25,131.299z"/>
<path d="M154.255,123.798c0,4.142,3.357,7.5,7.5,7.5h13.322c4.143,0,7.5-3.358,7.5-7.5c0-4.142-3.357-7.5-7.5-7.5h-13.322
	C157.613,116.298,154.255,119.655,154.255,123.798z"/>
<path d="M63.26,157.096l-9.421,9.42c-2.93,2.929-2.93,7.677-0.001,10.607c2.929,2.929,7.678,2.929,10.607,0l9.421-9.42
	c2.93-2.929,2.93-7.677,0.001-10.607C70.937,154.167,66.188,154.167,63.26,157.096z"/>
<path d="M151.07,90.499l9.42-9.421c2.929-2.929,2.929-7.678-0.001-10.608c-2.928-2.929-7.677-2.928-10.607,0l-9.42,9.421
	c-2.929,2.929-2.929,7.678,0.001,10.608C143.39,93.427,148.139,93.429,151.07,90.499z"/>
<path d="M107.164,166.196c14.693,0,28.13-7.446,35.943-19.918c2.199-3.51,1.137-8.139-2.374-10.338
	c-3.509-2.2-8.141-1.136-10.338,2.374c-5.054,8.065-13.738,12.882-23.231,12.882c-15.107,0-27.398-12.291-27.398-27.398
	c0-15.107,12.291-27.398,27.398-27.398c10.103,0,19.355,5.535,24.146,14.446c1.963,3.648,6.51,5.014,10.158,3.053
	c3.648-1.962,5.016-6.51,3.054-10.159C137.112,89.96,122.796,81.4,107.166,81.4c-23.379,0-42.399,19.02-42.399,42.399
	C64.765,147.176,83.785,166.196,107.164,166.196z"/>
<g>
</g>
<g>
</g>
<g>
</g>
<g>
</g>
<g>
</g>
<g>
</g>
<g>
</g>
<g>
</g>
<g>
</g>
<g>
</g>
<g>
</g>
<g>
</g>
<g>
</g>
<g>
</g>
<g>
</g>
</svg>
